<?xml version="1.0" standalone="no"?>
<!DOCTYPE svg PUBLIC "-//W3C//DTD SVG 20010904//EN"
 "http://www.w3.org/TR/2001/REC-SVG-20010904/DTD/svg10.dtd">
<svg version="1.0" xmlns="http://www.w3.org/2000/svg"
 width="260.000000pt" height="260.000000pt" viewBox="0 0 260.000000 260.000000"
 preserveAspectRatio="xMidYMid meet">
<metadata>
Created by potrace 1.11, written by Peter Selinger 2001-2013
</metadata>
<g transform="translate(0.000000,260.000000) scale(0.100000,-0.100000)"
fill="#000000" stroke="none">
<path d="M0 1504 l0 -1095 33 22 c17 12 82 72 142 133 154 155 254 307 334
510 35 88 84 264 77 281 -2 7 -113 83 -245 170 l-241 158 0 349 c0 191 3 348
8 348 4 0 59 -7 122 -15 352 -44 516 -66 528 -70 9 -3 12 -40 12 -139 l0 -135
28 -14 c50 -25 153 -60 159 -54 3 4 8 75 12 159 l6 153 361 3 361 2 7 -52 c3
-29 6 -97 6 -150 0 -95 8 -120 33 -100 7 5 36 17 64 27 l52 19 3 140 3 141 50
7 c90 13 600 78 613 78 9 0 12 -76 12 -345 l0 -345 -251 -167 -251 -167 6 -36
c3 -19 11 -118 17 -220 19 -310 2 -684 -47 -985 -7 -50 -14 -96 -14 -102 0
-10 67 -13 300 -13 l300 0 0 1300 0 1300 -1300 0 -1300 0 0 -1096z"/>
<path d="M1154 1356 c-68 -32 -127 -86 -153 -141 -17 -37 -22 -76 -30 -252 -6
-114 -14 -267 -17 -340 l-7 -131 44 -6 c24 -3 89 -11 144 -16 55 -6 165 -17
244 -26 79 -8 146 -12 148 -10 9 9 44 680 38 721 -25 169 -247 278 -411 201z"/>
<path d="M565 913 c-76 -161 -164 -284 -304 -424 -69 -69 -156 -147 -193 -173
l-68 -48 0 -134 0 -134 205 0 205 0 39 78 c73 146 128 333 151 522 13 101 26
410 17 410 -3 0 -26 -44 -52 -97z"/>
<path d="M1922 465 c-7 -22 -23 -82 -37 -132 -14 -51 -45 -145 -70 -209 -25
-64 -45 -118 -45 -121 0 -2 24 -3 52 -1 l53 3 12 70 c22 126 55 394 51 412 -3
12 -9 4 -16 -22z"/>
</g>
</svg>
